<svg width="68" height="68" viewBox="0 0 68 68" fill="none" xmlns="http://www.w3.org/2000/svg">
<g id="App icon">
<path id="Vector" d="M34.2799 18.0057L35.4617 15.9668C36.189 14.694 37.8124 14.2655 39.0851 14.9927C40.3578 15.72 40.7864 17.3434 40.0591 18.6161L28.6956 38.2912H36.9163C39.5786 38.2912 41.0721 41.421 39.9162 43.5898H15.8256C14.3581 43.5898 13.1763 42.408 13.1763 40.9405C13.1763 39.473 14.3581 38.2912 15.8256 38.2912H22.5788L31.228 23.3043L28.5268 18.6161C27.7995 17.3434 28.2281 15.733 29.5008 14.9927C30.7735 14.2655 32.3839 14.694 33.1241 15.9668L34.2799 18.0057ZM24.0593 46.3171L21.5138 50.7326C20.7866 52.0053 19.1632 52.4339 17.8905 51.7066C16.6178 50.9794 16.1892 49.356 16.9165 48.0833L18.8126 44.8106C20.9424 44.1483 22.6827 44.6548 24.0593 46.3171ZM45.9941 38.3042H52.8901C54.3576 38.3042 55.5395 39.486 55.5395 40.9535C55.5395 42.421 54.3576 43.6028 52.8901 43.6028H49.059L51.6434 48.0833C52.3707 49.356 51.9421 50.9664 50.6694 51.7066C49.3967 52.4339 47.7863 52.0053 47.046 50.7326C42.6954 43.1873 39.4227 37.538 37.2539 33.7718C35.0332 29.9406 36.6176 26.0965 38.189 24.7978C39.9292 27.7848 42.5266 32.2913 45.9941 38.3042Z" fill="white"/>
<rect id="Rectangle 706" x="1.46397" y="1.46349" width="64.4149" height="64.4149" rx="13.1758" stroke="#FF8500" stroke-width="2.92795"/>
</g>
</svg>
