<svg width="46" height="46" viewBox="0 0 46 46" fill="none" xmlns="http://www.w3.org/2000/svg">
<g id="App icon">
<path id="Vector" d="M23.4153 12.2996L24.2226 10.9068C24.7194 10.0375 25.8282 9.74475 26.6976 10.2415C27.5669 10.7383 27.8597 11.8472 27.3629 12.7165L19.6008 26.156H25.2161C27.0347 26.156 28.0548 28.2939 27.2653 29.7754H10.8097C9.80726 29.7754 9 28.9681 9 27.9657C9 26.9633 9.80726 26.156 10.8097 26.156H15.4226L21.3306 15.9189L19.4855 12.7165C18.9887 11.8472 19.2815 10.7472 20.1508 10.2415C21.0202 9.74475 22.1202 10.0375 22.6258 10.9068L23.4153 12.2996ZM16.4339 31.6383L14.6952 34.6544C14.1984 35.5238 13.0895 35.8165 12.2202 35.3197C11.3508 34.823 11.0581 33.7141 11.5548 32.8447L12.85 30.6093C14.3048 30.1568 15.4935 30.5028 16.4339 31.6383ZM31.4169 26.1649H36.1274C37.1298 26.1649 37.9371 26.9722 37.9371 27.9746C37.9371 28.977 37.1298 29.7843 36.1274 29.7843H33.5105L35.2758 32.8447C35.7726 33.7141 35.4798 34.8141 34.6105 35.3197C33.7411 35.8165 32.6411 35.5238 32.1355 34.6544C29.1637 29.5004 26.9282 25.6415 25.4468 23.0689C23.9298 20.452 25.0121 17.8262 26.0855 16.9391C27.2742 18.9794 29.0484 22.0577 31.4169 26.1649Z" fill="white"/>
<rect id="Rectangle 706" x="1" y="1" width="44" height="44" stroke="#FF8500" stroke-width="2"/>
</g>
</svg>
