<svg width="9" height="16" viewBox="0 0 9 16" fill="none" xmlns="http://www.w3.org/2000/svg">
<path d="M1.19916 14.9191L1.19921 14.9191C1.4206 15.1026 1.69871 15.2035 1.98606 15.2047C2.1783 15.2151 2.37035 15.1806 2.54703 15.104C2.72593 15.0264 2.88404 14.9077 3.00855 14.7576C3.00865 14.7575 3.00875 14.7574 3.00886 14.7573L7.96648 8.80813L7.96648 8.80813L7.96755 8.80683C8.15017 8.58467 8.25 8.306 8.25 8.01841C8.25 7.73127 8.15048 7.45302 7.9684 7.23103L3.18217 1.28539C3.07979 1.15016 2.95078 1.03733 2.80309 0.953868C2.65412 0.869685 2.48935 0.817202 2.31914 0.799714C2.14892 0.782227 1.97693 0.80011 1.81395 0.852244C1.65275 0.903809 1.50382 0.987779 1.37628 1.09898C1.25068 1.20081 1.14616 1.32622 1.06862 1.46815C0.990185 1.61173 0.940897 1.76939 0.92359 1.93207C0.906283 2.09476 0.921299 2.25926 0.967774 2.41613C1.01419 2.57279 1.09107 2.71875 1.19401 2.84564C1.19414 2.8458 1.19427 2.84596 1.1944 2.84612L5.34892 8.01043L1.03799 13.1681L1.03775 13.1684C0.933208 13.2939 0.854442 13.4387 0.805964 13.5947C0.757486 13.7506 0.74025 13.9146 0.755244 14.0773C0.770237 14.2399 0.817166 14.3979 0.893341 14.5424C0.969515 14.6869 1.07344 14.8149 1.19916 14.9191Z" fill="#FF8500" stroke="#FF8500" stroke-width="0.5"/>
</svg>
