<svg width="25632" height="25632" viewBox="0 0 25632 25632" fill="none" xmlns="http://www.w3.org/2000/svg">
<circle cx="12816" cy="12816" r="12816" fill="white"/>
<path d="M19523.2 8204.69H18163.9L18106 8166.04C14897.8 6027.3 10710.6 6027.3 7502.44 8166.04L7444.46 8204.69H6078.76L6581.24 7805.29C10221 4919.28 15374.5 4919.28 19014.3 7805.29L19523.2 8204.69Z" fill="black"/>
<path d="M11374.1 14298.7C12366.2 15290.7 12366.2 16894.8 11387 17893.3C10994.1 18344.2 10433.6 18614.8 9834.5 18647H6072.38V9892.34H9151.65C10002 9892.34 10672 10143.6 11161.6 10639.6C12147.2 11618.8 12153.6 13210 11174.4 14195.6C11168 14202 11168 14202 11161.6 14208.5C11052 14208.5 11045.6 14176.3 11129.3 14099C11193.8 14124.7 11258.2 14189.1 11374.1 14298.7ZM7463.85 11258V13570.7H9396.45C9699.22 13570.7 9995.55 13448.3 10208.1 13229.3C10427.2 13016.7 10549.6 12720.4 10543.1 12411.2C10543.1 12101.9 10420.7 11812.1 10201.7 11593C9989.11 11374 9692.78 11251.6 9383.56 11258H7463.85V11258ZM9596.15 17268.4C9905.37 17268.4 10195.3 17146 10414.3 16927C10865.2 16469.6 10858.8 15735.2 10401.4 15284.3C10182.4 15071.7 9892.48 14949.3 9589.71 14949.3H7470.29V17268.4H9596.15Z" fill="black"/>
<path d="M18170.7 9891.72V12668.2C17616.7 12255.9 16940.3 12049.8 16251 12094.9C14440.8 12146.4 13010.7 13647.4 13062.2 15457.6C13107.3 17196.9 14511.7 18601.3 16251 18646.4C17159.4 18646.4 17797.1 18453.1 18170.7 18073V18562.6H19523.6V9891.72H18170.7ZM17610.3 16733.1C16856.6 17486.8 15632.6 17493.3 14878.9 16739.5C14125.2 15985.8 14118.7 14761.9 14872.4 14008.1C15626.2 13254.4 16850.1 13248 17603.9 14001.7C17971 14362.5 18170.7 14858.5 18170.7 15373.8C18183.6 15882.8 17977.5 16378.8 17610.3 16733.1Z" fill="black"/>
</svg>
