<svg width="3426" height="3426" viewBox="0 0 3426 3426" fill="none" xmlns="http://www.w3.org/2000/svg">
<g id="Group 660">
<circle id="Ellipse 19" cx="1713" cy="1713" r="1713" fill="#FF8500"/>
<path id="Vector" d="M1562.44 1867.41C1711.7 2016.67 1711.7 2258.02 1564.38 2408.25C1505.25 2476.1 1420.93 2516.81 1330.78 2521.66H915.194C844.267 2521.66 808.803 2521.66 786.769 2499.62C764.734 2477.59 764.734 2442.12 764.734 2371.2V1354.89C764.734 1283.96 764.734 1248.5 786.769 1226.46C808.803 1204.43 844.267 1204.43 915.195 1204.43H1228.04C1355.98 1204.43 1456.79 1242.23 1530.45 1316.86C1678.75 1464.19 1679.72 1703.6 1532.39 1851.9V1851.9C1531.15 1853.14 1529.46 1853.85 1527.71 1853.78C1523.39 1853.62 1520.41 1853.02 1518.71 1851.94C1509.28 1845.94 1532.29 1840.16 1540.81 1847.4C1546.69 1852.4 1553.56 1859.02 1562.44 1867.41Z" fill="black"/>
<path id="Vector_2" d="M1863.3 1567.13C1714.03 1716.39 1714.03 1957.74 1861.36 2107.98C1920.48 2175.82 2004.81 2216.53 2094.95 2221.38H2510.54C2581.47 2221.38 2616.93 2221.38 2638.97 2199.35C2661 2177.31 2661 2141.85 2661 2070.92V1054.61C2661 983.685 2661 948.221 2638.97 926.187C2616.93 904.152 2581.47 904.152 2510.54 904.152H2197.69C2069.75 904.152 1968.95 941.953 1895.28 1016.59C1746.99 1163.91 1746.02 1403.32 1893.34 1551.62V1551.62C1894.59 1552.86 1896.27 1553.58 1898.03 1553.51C1902.34 1553.34 1905.33 1552.74 1907.02 1551.66C1916.46 1545.66 1893.45 1539.88 1884.93 1547.12C1879.04 1552.12 1872.17 1558.74 1863.3 1567.13Z" fill="black"/>
</g>
</svg>
