<svg width="16" height="16" viewBox="0 0 16 16" fill="none" xmlns="http://www.w3.org/2000/svg">
<circle cx="8" cy="8" r="8" fill="white"/>
<path d="M5.3825 12.943H7.0325C7.26396 12.943 7.49314 12.8974 7.70698 12.8088C7.92082 12.7202 8.11511 12.5904 8.27878 12.4267C8.44244 12.2631 8.57226 12.0688 8.66084 11.8549C8.74941 11.6411 8.795 11.4119 8.795 11.1805V11.1805C8.795 10.949 8.74941 10.7198 8.66084 10.506C8.57226 10.2922 8.44244 10.0979 8.27878 9.93419C8.11511 9.77053 7.92082 9.6407 7.70698 9.55213C7.49314 9.46356 7.26396 9.41797 7.0325 9.41797H3.6575V11.2255C3.6575 11.4516 3.70217 11.6756 3.78895 11.8845C3.87573 12.0933 4.00291 12.283 4.16319 12.4426C4.32347 12.6022 4.5137 12.7285 4.72294 12.8144C4.93218 12.9003 5.15633 12.944 5.3825 12.943V12.943Z" fill="black"/>
<path d="M6.03499 5.75H5.28499C4.84863 5.75983 4.43359 5.9406 4.12919 6.25341C3.8248 6.56622 3.65541 6.98604 3.65749 7.4225V9.0875H6.03499C6.47658 9.0875 6.90007 8.91208 7.21232 8.59983C7.52457 8.28758 7.69999 7.86409 7.69999 7.4225V7.4225C7.70098 7.20322 7.65864 6.9859 7.57541 6.78303C7.49218 6.58015 7.36969 6.39572 7.21498 6.24032C7.06027 6.08491 6.87639 5.9616 6.67389 5.87745C6.4714 5.79331 6.25427 5.75 6.03499 5.75V5.75Z" fill="black"/>
<path d="M10.6175 3.05666H8.96749C8.50004 3.05666 8.05174 3.24235 7.72121 3.57288C7.39068 3.90341 7.20499 4.35171 7.20499 4.81916V4.81916C7.20499 5.2866 7.39068 5.7349 7.72121 6.06543C8.05174 6.39597 8.50004 6.58166 8.96749 6.58166H12.3425V4.77416C12.3425 4.54798 12.2978 4.32403 12.211 4.11516C12.1243 3.90629 11.9971 3.71662 11.8368 3.55704C11.6765 3.39746 11.4863 3.27111 11.277 3.18524C11.0678 3.09936 10.8437 3.05567 10.6175 3.05666V3.05666Z" fill="black"/>
<path d="M9.96497 10.2496H10.715C11.1553 10.2496 11.5776 10.0752 11.8897 9.7646C12.2017 9.45397 12.378 9.03239 12.38 8.59211V6.91211H9.96497C9.52339 6.91211 9.09989 7.08753 8.78764 7.39978C8.47539 7.71202 8.29997 8.13552 8.29997 8.57711V8.57711C8.29899 8.79639 8.34132 9.01371 8.42456 9.21658C8.50779 9.41945 8.63027 9.60389 8.78498 9.75929C8.93969 9.9147 9.12357 10.038 9.32607 10.1222C9.52857 10.2063 9.74569 10.2496 9.96497 10.2496V10.2496Z" fill="black"/>
</svg>
