<svg width="117" height="39" viewBox="0 0 117 39" fill="none" xmlns="http://www.w3.org/2000/svg">
<path d="M81.7479 0.22228C69.4472 0.22228 58.0858 4.30167 49.0227 11.1119C48.6226 11.4126 48.8411 12.0365 49.3365 12.0365H51.4761C51.5801 12.0365 51.6816 12.0055 51.7679 11.9479C60.3069 6.24634 70.5894 3.02517 81.6218 3.02517C92.6541 3.02517 102.937 6.37042 111.478 11.9508C111.563 12.0066 111.663 12.0365 111.765 12.0365H114.033C114.529 12.0365 114.747 11.4126 114.347 11.1119C105.284 4.30174 93.927 0.22228 81.7479 0.22228Z" fill="white" stroke="white" stroke-width="0.17458"/>
<path d="M2.39798 32.2891C2.22035 32.2891 2.07502 32.2325 1.96199 32.1195C1.84895 32.0065 1.79243 31.8611 1.79243 31.6835V15.9392C1.79243 15.7616 1.84895 15.6162 1.96199 15.5032C2.07502 15.3902 2.22035 15.3336 2.39798 15.3336H9.59193C10.9322 15.3336 12.0303 15.5274 12.8861 15.915C13.742 16.3025 14.3717 16.8515 14.7754 17.5621C15.1953 18.2726 15.4052 19.1042 15.4052 20.0569C15.4052 20.6544 15.2922 21.1792 15.0661 21.6314C14.8562 22.0835 14.5897 22.4549 14.2668 22.7456C13.96 23.0362 13.6612 23.2542 13.3706 23.3996C14.0003 23.6902 14.5494 24.1747 15.0177 24.8529C15.5021 25.515 15.7443 26.3062 15.7443 27.2267C15.7443 28.244 15.5183 29.1321 15.0661 29.8911C14.614 30.65 13.9438 31.2394 13.0557 31.6593C12.1675 32.0791 11.0856 32.2891 9.80993 32.2891H2.39798ZM5.64374 29.4551H9.34971C10.141 29.4551 10.7384 29.2371 11.1421 28.8011C11.5458 28.3489 11.7477 27.8161 11.7477 27.2024C11.7477 26.5727 11.5378 26.0478 11.1179 25.628C10.7142 25.192 10.1248 24.974 9.34971 24.974H5.64374V29.4551ZM5.64374 22.1885H9.13171C9.89067 22.1885 10.4558 22.0028 10.8273 21.6314C11.2148 21.2438 11.4086 20.7513 11.4086 20.1538C11.4086 19.5563 11.2148 19.08 10.8273 18.7247C10.4558 18.3533 9.89067 18.1676 9.13171 18.1676H5.64374V22.1885ZM19.0675 32.2891C18.906 32.2891 18.7687 32.2325 18.6557 32.1195C18.5427 32.0065 18.4861 31.8611 18.4861 31.6835V20.2992C18.4861 20.1215 18.5427 19.9762 18.6557 19.8632C18.7687 19.7501 18.906 19.6936 19.0675 19.6936H21.4897C21.6673 19.6936 21.8126 19.7501 21.9257 19.8632C22.0387 19.9762 22.0952 20.1215 22.0952 20.2992V31.6835C22.0952 31.8611 22.0387 32.0065 21.9257 32.1195C21.8126 32.2325 21.6673 32.2891 21.4897 32.2891H19.0675ZM18.9948 17.7558C18.8333 17.7558 18.6961 17.6993 18.583 17.5863C18.47 17.4732 18.4135 17.3279 18.4135 17.1503V15.2125C18.4135 15.0349 18.47 14.8896 18.583 14.7765C18.6961 14.6473 18.8333 14.5828 18.9948 14.5828H21.5381C21.7158 14.5828 21.8611 14.6473 21.9741 14.7765C22.1033 14.8896 22.1679 15.0349 22.1679 15.2125V17.1503C22.1679 17.3279 22.1033 17.4732 21.9741 17.5863C21.8611 17.6993 21.7158 17.7558 21.5381 17.7558H18.9948ZM31.0432 37.6179C29.8482 37.6179 28.8551 37.4564 28.0639 37.1335C27.2726 36.8267 26.6429 36.4472 26.1746 35.995C25.7224 35.559 25.3995 35.123 25.2057 34.687C25.0119 34.251 24.9069 33.9119 24.8908 33.6697C24.8746 33.4921 24.9312 33.3468 25.0603 33.2337C25.1895 33.1207 25.3349 33.0642 25.4963 33.0642H28.0881C28.2334 33.0642 28.3545 33.0965 28.4514 33.1611C28.5645 33.2418 28.6533 33.371 28.7179 33.5486C28.7986 33.7424 28.9117 33.9442 29.057 34.1542C29.2023 34.3802 29.4203 34.5659 29.711 34.7113C30.0178 34.8566 30.4215 34.9293 30.9221 34.9293C31.4873 34.9293 31.9556 34.8485 32.327 34.687C32.6984 34.5256 32.9729 34.251 33.1505 33.8635C33.3443 33.4759 33.4412 32.9511 33.4412 32.2891V30.6662C33.0536 31.086 32.5611 31.4332 31.9636 31.7077C31.3823 31.9822 30.6637 32.1195 29.8079 32.1195C28.9682 32.1195 28.2254 31.9903 27.5794 31.732C26.9497 31.4574 26.4249 31.078 26.005 30.5935C25.5852 30.0929 25.2622 29.4955 25.0361 28.8011C24.8101 28.1067 24.6809 27.3235 24.6486 26.4516C24.6324 26.0156 24.6324 25.5876 24.6486 25.1678C24.6809 24.3281 24.8101 23.5611 25.0361 22.8667C25.2622 22.1723 25.5852 21.5748 26.005 21.0743C26.4249 20.5575 26.9497 20.1619 27.5794 19.8874C28.2254 19.5967 28.9682 19.4514 29.8079 19.4514C30.696 19.4514 31.455 19.6209 32.0847 19.96C32.7145 20.2992 33.2313 20.719 33.635 21.2196V20.2992C33.635 20.1377 33.6915 20.0004 33.8045 19.8874C33.9175 19.7582 34.0548 19.6936 34.2163 19.6936H36.59C36.7515 19.6936 36.8888 19.7582 37.0018 19.8874C37.131 20.0004 37.1956 20.1377 37.1956 20.2992L37.2198 31.95C37.2198 33.1611 36.9857 34.1865 36.5174 35.0262C36.0491 35.8659 35.3547 36.5037 34.4343 36.9397C33.53 37.3918 32.3996 37.6179 31.0432 37.6179ZM30.9221 29.2855C31.5034 29.2855 31.9717 29.1563 32.327 28.898C32.6984 28.6235 32.9729 28.2844 33.1505 27.8807C33.3281 27.4608 33.425 27.0248 33.4412 26.5727C33.4573 26.395 33.4654 26.1447 33.4654 25.8218C33.4654 25.4827 33.4573 25.2243 33.4412 25.0467C33.425 24.5945 33.3281 24.1666 33.1505 23.7629C32.9729 23.3431 32.6984 23.0039 32.327 22.7456C31.9717 22.4872 31.5034 22.358 30.9221 22.358C30.3085 22.358 29.824 22.4953 29.4688 22.7698C29.1135 23.0282 28.8551 23.3754 28.6937 23.8113C28.5322 24.2473 28.4353 24.7237 28.403 25.2404C28.3868 25.628 28.3868 26.0075 28.403 26.3789C28.4353 26.9118 28.5322 27.3962 28.6937 27.8322C28.8551 28.2682 29.1135 28.6235 29.4688 28.898C29.824 29.1563 30.3085 29.2855 30.9221 29.2855ZM40.8531 32.2891C40.6916 32.2891 40.5544 32.2325 40.4413 32.1195C40.3283 32.0065 40.2718 31.8611 40.2718 31.6835V20.2992C40.2718 20.1215 40.3283 19.9762 40.4413 19.8632C40.5544 19.7501 40.6916 19.6936 40.8531 19.6936H43.2753C43.453 19.6936 43.5983 19.7501 43.7113 19.8632C43.8244 19.9762 43.8809 20.1215 43.8809 20.2992V31.6835C43.8809 31.8611 43.8244 32.0065 43.7113 32.1195C43.5983 32.2325 43.453 32.2891 43.2753 32.2891H40.8531ZM40.7805 17.7558C40.619 17.7558 40.4817 17.6993 40.3687 17.5863C40.2556 17.4732 40.1991 17.3279 40.1991 17.1503V15.2125C40.1991 15.0349 40.2556 14.8896 40.3687 14.7765C40.4817 14.6473 40.619 14.5828 40.7805 14.5828H43.3238C43.5014 14.5828 43.6467 14.6473 43.7598 14.7765C43.889 14.8896 43.9535 15.0349 43.9535 15.2125V17.1503C43.9535 17.3279 43.889 17.4732 43.7598 17.5863C43.6467 17.6993 43.5014 17.7558 43.3238 17.7558H40.7805ZM47.7907 32.2891C47.613 32.2891 47.4677 32.2325 47.3547 32.1195C47.2416 32.0065 47.1851 31.8611 47.1851 31.6835V15.9392C47.1851 15.7616 47.2416 15.6162 47.3547 15.5032C47.4677 15.3902 47.613 15.3336 47.7907 15.3336H54.9846C56.3249 15.3336 57.423 15.5274 58.2788 15.915C59.1346 16.3025 59.7644 16.8515 60.1681 17.5621C60.588 18.2726 60.7979 19.1042 60.7979 20.0569C60.7979 20.6544 60.6849 21.1792 60.4588 21.6314C60.2489 22.0835 59.9824 22.4549 59.6595 22.7456C59.3526 23.0362 59.0539 23.2542 58.7632 23.3996C59.393 23.6902 59.942 24.1747 60.4103 24.8529C60.8948 25.515 61.137 26.3062 61.137 27.2267C61.137 28.244 60.9109 29.1321 60.4588 29.8911C60.0066 30.65 59.3365 31.2394 58.4484 31.6593C57.5602 32.0791 56.4783 32.2891 55.2026 32.2891H47.7907ZM51.0364 29.4551H54.7424C55.5336 29.4551 56.1311 29.2371 56.5348 28.8011C56.9385 28.3489 57.1404 27.8161 57.1404 27.2024C57.1404 26.5727 56.9304 26.0478 56.5106 25.628C56.1069 25.192 55.5175 24.974 54.7424 24.974H51.0364V29.4551ZM51.0364 22.1885H54.5244C55.2833 22.1885 55.8485 22.0028 56.2199 21.6314C56.6075 21.2438 56.8013 20.7513 56.8013 20.1538C56.8013 19.5563 56.6075 19.08 56.2199 18.7247C55.8485 18.3533 55.2833 18.1676 54.5244 18.1676H51.0364V22.1885ZM64.3419 32.2891C64.1804 32.2891 64.0431 32.2325 63.9301 32.1195C63.8171 32.0065 63.7605 31.8611 63.7605 31.6835V20.2992C63.7605 20.1377 63.8171 20.0004 63.9301 19.8874C64.0431 19.7582 64.1804 19.6936 64.3419 19.6936H66.7156C66.8771 19.6936 67.0144 19.7582 67.1274 19.8874C67.2566 20.0004 67.3212 20.1377 67.3212 20.2992V21.268C67.7249 20.7674 68.2174 20.3799 68.7987 20.1054C69.3962 19.8309 70.0825 19.6936 70.8576 19.6936H71.8992C72.0606 19.6936 72.1979 19.7501 72.3109 19.8632C72.424 19.9762 72.4805 20.1215 72.4805 20.2992V22.3822C72.4805 22.5599 72.424 22.7052 72.3109 22.8182C72.1979 22.9313 72.0606 22.9878 71.8992 22.9878H69.7676C69.0571 22.9878 68.5 23.1896 68.0963 23.5933C67.6926 23.9809 67.4907 24.538 67.4907 25.2647V31.6835C67.4907 31.8611 67.4342 32.0065 67.3212 32.1195C67.2082 32.2325 67.0628 32.2891 66.8852 32.2891H64.3419ZM77.7798 32.5313C76.924 32.5313 76.1569 32.3698 75.4787 32.0468C74.8005 31.7077 74.2595 31.2556 73.8558 30.6904C73.4521 30.1252 73.2503 29.4955 73.2503 28.8011C73.2503 27.6546 73.7105 26.7503 74.6309 26.0882C75.5675 25.4262 76.7948 24.974 78.3127 24.7318L81.4858 24.2716V23.8356C81.4858 23.2058 81.3405 22.7214 81.0498 22.3822C80.7591 22.0431 80.2505 21.8736 79.5238 21.8736C78.9909 21.8736 78.563 21.9785 78.24 22.1885C77.9171 22.3984 77.6668 22.6729 77.4891 23.012C77.36 23.2219 77.1743 23.3269 76.932 23.3269H74.6309C74.4533 23.3269 74.3161 23.2785 74.2192 23.1816C74.1223 23.0685 74.0819 22.9394 74.0981 22.794C74.0981 22.5195 74.203 22.1965 74.4129 21.8251C74.6229 21.4537 74.9458 21.0904 75.3818 20.7351C75.8178 20.3637 76.3749 20.0569 77.0532 19.8147C77.7314 19.5725 78.563 19.4514 79.548 19.4514C80.5653 19.4514 81.4373 19.5725 82.164 19.8147C82.8907 20.0569 83.472 20.396 83.908 20.832C84.344 21.268 84.6669 21.7767 84.8769 22.358C85.0868 22.9232 85.1918 23.5368 85.1918 24.1989V31.6835C85.1918 31.8611 85.1352 32.0065 85.0222 32.1195C84.9092 32.2325 84.7638 32.2891 84.5862 32.2891H82.2124C82.051 32.2891 81.9137 32.2325 81.8007 32.1195C81.6876 32.0065 81.6311 31.8611 81.6311 31.6835V30.7873C81.4212 31.0941 81.1386 31.3848 80.7833 31.6593C80.4281 31.9177 80.0002 32.1276 79.4996 32.2891C79.0151 32.4505 78.4419 32.5313 77.7798 32.5313ZM78.7487 30.0122C79.2816 30.0122 79.7579 29.8992 80.1778 29.6731C80.5976 29.447 80.9287 29.0998 81.1709 28.6315C81.4131 28.1632 81.5342 27.5738 81.5342 26.8633V26.4516L79.2816 26.8149C78.4096 26.9602 77.7717 27.1782 77.368 27.4689C76.9643 27.7595 76.7625 28.1148 76.7625 28.5346C76.7625 28.8415 76.8513 29.1079 77.0289 29.334C77.2227 29.56 77.473 29.7296 77.7798 29.8426C78.0866 29.9557 78.4096 30.0122 78.7487 30.0122ZM88.7058 32.2891C88.5444 32.2891 88.4071 32.2325 88.2941 32.1195C88.181 32.0065 88.1245 31.8611 88.1245 31.6835V20.2992C88.1245 20.1215 88.181 19.9762 88.2941 19.8632C88.4071 19.7501 88.5444 19.6936 88.7058 19.6936H91.0796C91.2572 19.6936 91.4026 19.7501 91.5156 19.8632C91.6286 19.9762 91.6852 20.1215 91.6852 20.2992V21.2438C92.105 20.7271 92.646 20.2992 93.308 19.96C93.9701 19.6209 94.7775 19.4514 95.7302 19.4514C96.683 19.4514 97.5146 19.6694 98.2251 20.1054C98.9518 20.5252 99.5169 21.1469 99.9206 21.9705C100.34 22.7779 100.55 23.7629 100.55 24.9256V31.6835C100.55 31.8611 100.486 32.0065 100.357 32.1195C100.244 32.2325 100.106 32.2891 99.9449 32.2891H97.3773C97.1997 32.2891 97.0544 32.2325 96.9413 32.1195C96.8283 32.0065 96.7718 31.8611 96.7718 31.6835V25.0709C96.7718 24.215 96.5619 23.553 96.142 23.0847C95.7383 22.6002 95.1408 22.358 94.3496 22.358C93.5906 22.358 92.9851 22.6002 92.5329 23.0847C92.0808 23.553 91.8547 24.215 91.8547 25.0709V31.6835C91.8547 31.8611 91.7982 32.0065 91.6852 32.1195C91.5721 32.2325 91.4349 32.2891 91.2734 32.2891H88.7058ZM108.127 32.5313C107.32 32.5313 106.601 32.4021 105.972 32.1437C105.342 31.8692 104.809 31.4817 104.373 30.9811C103.937 30.4643 103.606 29.8588 103.38 29.1644C103.154 28.4539 103.017 27.6707 102.968 26.8149C102.952 26.5081 102.944 26.2336 102.944 25.9913C102.944 25.733 102.952 25.4584 102.968 25.1678C103 24.3281 103.13 23.5611 103.356 22.8667C103.598 22.1723 103.929 21.5748 104.349 21.0743C104.785 20.5575 105.318 20.1619 105.947 19.8874C106.593 19.5967 107.32 19.4514 108.127 19.4514C108.967 19.4514 109.686 19.5967 110.283 19.8874C110.881 20.1619 111.373 20.5252 111.761 20.9774V15.697C111.761 15.5193 111.817 15.374 111.93 15.261C112.043 15.1479 112.189 15.0914 112.366 15.0914H114.861C115.023 15.0914 115.16 15.1479 115.273 15.261C115.386 15.374 115.442 15.5193 115.442 15.697V31.6835C115.442 31.8611 115.386 32.0065 115.273 32.1195C115.16 32.2325 115.023 32.2891 114.861 32.2891H112.536C112.374 32.2891 112.237 32.2325 112.124 32.1195C112.011 32.0065 111.954 31.8611 111.954 31.6835V30.86C111.551 31.3444 111.042 31.7481 110.428 32.0711C109.815 32.3779 109.048 32.5313 108.127 32.5313ZM109.242 29.6246C109.839 29.6246 110.315 29.4874 110.671 29.2129C111.042 28.9383 111.309 28.5912 111.47 28.1713C111.648 27.7515 111.745 27.2993 111.761 26.8149C111.793 26.5081 111.809 26.2013 111.809 25.8944C111.809 25.5876 111.793 25.2889 111.761 24.9982C111.745 24.5461 111.648 24.1262 111.47 23.7387C111.292 23.335 111.018 23.0039 110.646 22.7456C110.291 22.4872 109.823 22.358 109.242 22.358C108.628 22.358 108.144 22.4953 107.788 22.7698C107.433 23.0282 107.175 23.3754 107.013 23.8113C106.868 24.2473 106.779 24.7237 106.747 25.2404C106.698 25.741 106.698 26.2416 106.747 26.7422C106.779 27.259 106.868 27.7353 107.013 28.1713C107.175 28.6073 107.433 28.9626 107.788 29.2371C108.144 29.4955 108.628 29.6246 109.242 29.6246Z" fill="white"/>
</svg>
