<svg width="208" height="174" viewBox="0 0 208 174" fill="none" xmlns="http://www.w3.org/2000/svg">
<path d="M119.969 38.1518C120.38 37.9708 121.086 37.8062 122.433 38.5962C123.748 39.3698 123.879 42.1513 122.712 44.5379C122.121 45.7558 120.051 49.1299 115.286 48.7349C116.995 40.6371 118.934 38.6127 119.969 38.1518ZM101.42 32.2924C101.962 29.3792 103.885 29.3792 104.525 29.3792C107.22 29.3792 107.68 30.8276 107.828 31.3214C108.6 33.7408 107.236 37.8226 104.065 41.7728C103.819 41.4107 103.589 41.0486 103.375 40.67C101.732 37.8556 100.993 34.6461 101.42 32.2924ZM146.124 29.2311C144.251 23.6186 141.458 18.6644 137.811 14.5003C134.673 10.9287 130.878 7.91675 126.54 5.56312C117.028 0.395014 107.926 0 105.347 0C99.8101 0 89.1311 0.806488 79.6185 6.23794C74.4433 9.18409 70.2374 13.1507 67.1323 18.0061C63.5014 23.6844 61.3327 30.663 60.7084 38.7279C59.2791 57.0138 64.7993 65.6876 70.1388 74.0981C72.8003 78.2787 75.3141 82.2453 77.072 87.397C78.2549 90.8698 79.1092 94.392 79.9471 97.7825C81.8858 105.683 83.7258 113.188 89.2132 117.385C87.061 119.475 86.4695 121.813 86.4531 123.689C86.4366 125.746 87.1267 128.577 90.3139 130.997C89.2296 132.626 88.7039 134.519 88.786 136.609C88.8846 139.078 89.8539 141.037 91.4147 142.584L94.257 159.997C94.372 160.738 94.947 161.314 95.6699 161.479C96.3928 161.627 97.1485 161.314 97.5428 160.689L100.336 156.294L105.774 172.095C106.02 172.819 106.71 173.313 107.466 173.313C107.499 173.313 107.532 173.313 107.565 173.313C108.37 173.28 109.043 172.704 109.224 171.93L112.789 156.821L116.026 161.363C116.453 161.956 117.192 162.236 117.899 162.071C118.605 161.907 119.147 161.314 119.262 160.59L122.039 142.633C122.088 142.436 122.121 142.222 122.121 141.991C122.121 141.958 122.121 141.925 122.121 141.892C122.088 140.576 121.119 139.539 119.213 138.798C116.272 137.679 110.604 137.037 105.1 137.218C101.272 137.333 96.4914 137.86 93.5341 139.572C92.8112 138.683 92.4333 137.646 92.3841 136.51C92.3348 135.128 92.6798 133.91 93.452 132.857C98.2986 135.046 104.312 135.523 107.696 135.589C113.529 135.72 118.72 134.897 121.25 133.466C122.959 132.478 123.32 131.293 123.32 130.47C123.32 129.581 122.91 128.281 120.905 127.162C118.293 125.697 113.479 124.742 108.32 124.676C104.887 124.627 98.4136 124.973 93.7969 127.804C93.4684 128.001 93.1562 128.215 92.8441 128.446C90.9711 127.162 90.0182 125.598 90.0511 123.788C90.0675 122.059 90.889 120.578 92.5155 119.36C100.779 122.998 117.077 124.545 122.63 121.121C124.47 119.986 124.865 118.554 124.865 117.533C124.881 115.015 121.595 113.929 119.131 113.336C116.256 112.645 112.444 112.217 108.649 112.201C103.063 112.168 97.9536 112.941 94.2241 114.39C93.5341 114.653 92.9098 114.949 92.3348 115.245C87.0938 112.052 85.3852 105.057 83.4137 97.009C82.5593 93.5361 81.6886 89.9316 80.4564 86.3107C78.567 80.7476 75.8069 76.4188 73.1618 72.2383C67.9044 63.9759 62.9428 56.1744 64.2736 39.09C66.7708 7.14318 93.8134 3.70326 105.314 3.70326C115.894 3.70326 135.659 9.34868 142.674 30.4655C149.804 51.895 143.134 62.4781 134.706 75.8757C132.882 78.7725 130.993 81.7845 129.153 85.0433C126.869 89.0922 125.374 93.0424 124.06 96.5481C121.382 103.642 119.919 107.065 115.796 107.065C111.951 107.065 109.175 106.111 107.532 104.218C105.987 102.457 105.757 100.218 105.757 99.0499C106.513 95.0504 112.181 65.0951 114.564 52.4217C115.056 52.4711 115.533 52.504 115.993 52.504C120.987 52.504 124.355 49.4756 125.916 46.2496C127.97 42.0032 127.247 37.4276 124.24 35.6336C122.187 34.3992 120.232 34.1852 118.457 34.9917C115.467 36.3413 113.364 40.3902 111.754 48.0272C109.783 47.2701 107.975 46.1179 106.431 44.6696C107.63 43.2376 108.649 41.7399 109.47 40.2256C111.458 36.5388 112.083 33.0331 111.228 30.3503C110.325 27.5193 107.877 25.9064 104.492 25.9064C101.009 25.9064 98.5286 28.0954 97.855 31.7657C97.2635 34.9752 98.1507 39.0406 100.237 42.6122C100.648 43.3035 101.075 43.9783 101.552 44.6037C100.566 45.5419 99.4815 46.4471 98.2986 47.2865C97.6414 47.7638 97.0007 48.1259 96.3928 48.4222C95.5056 43.9289 93.3862 36.4401 88.9996 34.6954C87.6524 34.1523 85.5002 33.9383 82.9865 35.9299C79.7335 38.5139 80.7521 44.0112 83.6108 47.8297C85.4509 50.2821 87.9317 51.9609 90.5932 52.5863C91.3983 52.7674 92.3676 52.899 93.4684 52.8332C95.1113 63.0542 101.847 97.9471 102.143 99.4943C102.159 99.5437 102.159 99.593 102.176 99.6424C102.258 101.453 102.767 104.218 104.788 106.555C107.154 109.287 110.851 110.67 115.796 110.67C122.597 110.67 124.832 104.712 127.428 97.8319C128.693 94.4578 130.139 90.6394 132.274 86.8373C134.065 83.6608 135.938 80.6982 137.745 77.8178C146.371 64.0582 153.78 52.2736 146.124 29.2311ZM104.69 140.79C107.778 140.658 111.13 140.806 113.906 141.201C115.746 141.465 116.962 141.777 117.718 142.041C116.568 142.551 114.366 143.193 110.998 143.505C106.333 143.933 101.699 143.538 98.2986 142.419C97.8386 142.271 97.4114 142.106 97.0171 141.942C98.7093 141.399 101.223 140.938 104.69 140.79ZM108.156 147.275C109.043 147.258 114.12 147.11 117.915 145.843L116.404 155.619L113.43 151.439C113.019 150.863 112.313 150.583 111.623 150.714C110.933 150.846 110.374 151.373 110.226 152.064L107.187 164.984L102.57 151.537C102.34 150.879 101.765 150.418 101.075 150.336C101.009 150.319 100.927 150.319 100.862 150.319C100.254 150.319 99.6786 150.632 99.35 151.159L97.0828 154.73L95.522 145.201C99.12 146.764 103.72 147.357 108.156 147.275ZM98.66 129.466C102.258 128.281 107.105 127.902 111.968 128.413C116.059 128.841 118.424 129.746 119.361 130.338C118.293 130.898 115.582 131.688 110.916 131.902C105.807 132.116 100.566 131.49 96.7707 130.223C97.3457 129.943 97.97 129.68 98.66 129.466ZM111.409 115.805C116.65 116.118 119.969 117.089 121.086 117.714C120.987 117.797 120.872 117.879 120.757 117.961C117.373 120.035 105.412 119.722 97.0828 117.138C100.927 115.97 106.037 115.492 111.409 115.805ZM86.5188 45.5419C84.383 42.7109 84.0872 39.5508 85.2537 38.6291C86.0916 37.9543 86.6995 37.8062 87.1102 37.8062C87.3895 37.8062 87.5867 37.8885 87.7017 37.9214C89.7061 38.7114 91.7926 43.287 92.9262 49.1299C89.5418 49.0806 87.3074 46.5788 86.5188 45.5419ZM97.0171 51.9444C98.085 51.5329 99.235 50.9404 100.418 50.101C101.683 49.1958 102.882 48.2082 103.983 47.1549C105.872 48.9324 108.09 50.3314 110.489 51.2531C110.686 51.3354 110.883 51.4013 111.081 51.4671C109.388 60.4537 106.004 80.9286 103.917 91.9232C101.716 80.3525 98.1014 58.7255 97.0171 51.9444Z" fill="white"/>
<path d="M105.347 3.60449C115.928 3.60449 135.692 9.24991 142.707 30.3667C143.102 31.5682 143.463 32.7368 143.775 33.8725C136.037 19.6355 120.988 9.99056 103.671 9.99056C87.8665 9.99056 73.9509 18.039 65.7527 30.2515C72.0451 6.40251 94.9804 3.60449 105.347 3.60449Z" fill="#FF8500"/>
<path d="M49.4337 69.2249C48.8254 68.122 47.0967 67.03 39.3224 69.9376C35.744 66.3431 30.4945 64.5335 25.1629 65.5572C16.6236 67.2012 11.0045 75.4906 12.6611 84.0554C12.7022 84.2734 12.7554 84.4869 12.7965 84.7049C6.24183 89.7895 6.25806 91.8303 6.86639 92.9331C7.47926 94.048 8.95342 94.3569 11.4841 93.8686C12.6204 93.6456 13.986 93.2675 15.5644 92.7265C16.013 92.5709 16.4856 92.4062 16.9657 92.225C20.5441 95.8194 25.7936 97.6291 31.1252 96.6053C39.6645 94.9613 45.2835 86.6719 43.627 78.1071C43.5859 77.8891 43.5327 77.6756 43.4916 77.4577C43.8932 77.1412 44.2873 76.8413 44.6529 76.5384C48.8603 73.0817 50.3258 70.8251 49.4337 69.2249ZM25.5774 67.7086C32.275 66.4164 38.7979 70.3279 40.9886 76.603C37.8488 78.9286 33.9 81.4359 29.673 83.7873C25.4459 86.1386 21.2345 88.1681 17.6012 89.6223C16.2388 87.9386 15.2524 85.907 14.8165 83.6264C13.3946 76.2642 18.2224 69.1116 25.5774 67.7086ZM8.84416 91.8155C9.0048 91.2604 10.0472 89.6992 13.5027 86.9385C14.0078 88.2039 14.6674 89.3699 15.4528 90.4333C10.8363 92.08 9.26646 91.9171 8.84416 91.8155ZM30.7301 94.4329C26.4747 95.2564 22.2901 93.9789 19.2444 91.3235C22.7561 89.8741 26.7155 87.9397 30.7402 85.706C34.7648 83.4722 38.4842 81.1202 41.5793 78.8939C42.7439 86.1196 37.9515 93.0391 30.7301 94.4329ZM42.8049 75.203C42.2997 73.9375 41.6402 72.7716 40.8547 71.7081C45.0392 70.2246 46.9088 70.1644 47.4588 70.3139C47.3248 70.7216 46.626 72.1394 42.8049 75.203Z" fill="white"/>
<path d="M25.5779 67.7084C30.5387 66.7559 35.3934 68.646 38.4762 72.2352C35.3906 70.3092 31.6097 69.4837 27.7491 70.2269C20.0113 71.7057 14.8338 78.9492 15.7746 86.6715C15.3469 85.7202 15.0182 84.7042 14.8095 83.6428C13.3951 76.2641 18.2229 69.1114 25.5779 67.7084Z" fill="#CC0909"/>
<path d="M203.199 66.0982C203.48 65.0835 203.085 63.4188 196.736 60.5997C196.697 56.3574 194.616 52.2015 190.83 49.689C184.762 45.6674 176.556 47.3238 172.539 53.4073C172.436 53.5616 172.343 53.7201 172.241 53.8744C165.348 53.0695 164.165 54.2973 163.884 55.312C163.599 56.3367 164.3 57.3848 166.098 58.5759C166.908 59.1086 167.946 59.6829 169.206 60.2847C169.565 60.4546 169.944 60.6332 170.337 60.8063C170.376 65.0486 172.457 69.2045 176.244 71.717C182.311 75.7385 190.517 74.0821 194.534 67.9986C194.637 67.8444 194.73 67.6858 194.833 67.5316C195.258 67.5779 195.669 67.6298 196.064 67.6632C200.601 68.0647 202.797 67.5761 203.199 66.0982ZM189.82 51.2161C194.58 54.3687 196.194 60.5254 193.836 65.5549C190.598 65.1037 186.771 64.287 182.869 63.2141C178.967 62.1413 175.262 60.8855 172.239 59.6248C172.408 57.8216 173.006 56.0308 174.079 54.414C177.533 49.186 184.601 47.7445 189.82 51.2161ZM165.72 55.8036C166.141 55.5663 167.677 55.245 171.357 55.6215C170.919 56.6729 170.632 57.7553 170.48 58.8504C166.757 57.1287 165.913 56.1117 165.72 55.8036ZM177.277 70.1886C174.251 68.1871 172.496 64.9728 172.227 61.6032C175.174 62.7954 178.673 63.9603 182.385 64.9848C186.098 66.0093 189.697 66.7843 192.849 67.2686C189.322 72.2645 182.411 73.5875 177.277 70.1886ZM195.74 65.7833C196.178 64.7319 196.465 63.6494 196.617 62.5544C199.987 64.1203 201.14 65.1798 201.381 65.5913C201.063 65.7562 199.816 66.1931 195.74 65.7833Z" fill="white"/>
<path d="M189.822 51.2141C193.345 53.5519 195.143 57.5243 194.888 61.4729C194.169 58.5155 192.391 55.8076 189.648 53.9895C184.156 50.3391 176.826 51.6298 172.874 56.7907C173.174 55.9723 173.572 55.1732 174.067 54.4173C177.535 49.184 184.603 47.7427 189.822 51.2141Z" fill="#8656B5"/>
<path d="M160.273 119.189C159.985 118.419 158.973 117.551 153.679 118.693C151.711 116.034 148.494 114.37 144.956 114.526C139.287 114.78 134.872 119.599 135.127 125.284C135.133 125.429 135.147 125.571 135.153 125.716C130.439 128.378 130.255 129.697 130.543 130.466C130.832 131.244 131.755 131.583 133.435 131.507C134.189 131.47 135.107 131.355 136.177 131.155C136.481 131.097 136.802 131.036 137.129 130.964C139.097 133.623 142.313 135.287 145.852 135.131C151.52 134.877 155.935 130.058 155.68 124.373C155.675 124.228 155.661 124.085 155.655 123.941C155.944 123.774 156.227 123.618 156.492 123.457C159.536 121.624 160.697 120.306 160.273 119.189ZM145.019 115.954C149.465 115.753 153.303 118.895 154.12 123.152C151.873 124.357 149.085 125.602 146.133 126.72C143.181 127.838 140.27 128.749 137.787 129.344C137.067 128.129 136.624 126.724 136.559 125.211C136.342 120.324 140.138 116.164 145.019 115.954ZM131.926 129.932C132.082 129.589 132.903 128.68 135.396 127.224C135.602 128.089 135.917 128.904 136.323 129.665C133.186 130.291 132.189 130.037 131.926 129.932ZM145.804 133.691C142.979 133.82 140.399 132.6 138.686 130.598C141.09 129.994 143.83 129.12 146.64 128.059C149.45 126.998 152.074 125.831 154.284 124.687C154.349 129.461 150.597 133.474 145.804 133.691ZM155.426 122.42C155.22 121.556 154.905 120.741 154.499 119.98C157.341 119.418 158.554 119.556 158.895 119.705C158.769 119.955 158.184 120.804 155.426 122.42Z" fill="white"/>
<path d="M145.017 115.953C148.31 115.807 151.264 117.486 152.912 120.095C151.104 118.56 148.742 117.669 146.179 117.784C141.044 118.007 137.014 122.192 136.887 127.266C136.701 126.611 136.586 125.924 136.552 125.22C136.34 120.323 140.137 116.163 145.017 115.953Z" fill="#00509D"/>
</svg>
