<svg width="2239" height="2238" viewBox="0 0 2239 2238" fill="none" xmlns="http://www.w3.org/2000/svg">
<g id="Group 660">
<circle id="Ellipse 19" cx="1119" cy="1119" r="1119" fill="white"/>
<path id="Vector" d="M1003.71 1237.2C1118.2 1351.69 1118.2 1536.79 1005.2 1652.02C959.853 1704.06 895.176 1735.28 826.04 1739H507.291C452.891 1739 425.691 1739 408.791 1722.1C391.891 1705.2 391.891 1678 391.891 1623.6V844.111C391.891 789.711 391.891 762.511 408.791 745.611C425.691 728.711 452.891 728.711 507.291 728.711H747.239C845.368 728.711 922.682 757.704 979.181 814.946C1092.92 927.944 1093.67 1111.56 980.668 1225.31V1225.31C979.716 1226.26 978.421 1226.81 977.075 1226.75C973.765 1226.62 971.477 1226.16 970.176 1225.34C962.94 1220.73 980.59 1216.3 987.125 1221.85C991.637 1225.69 996.906 1230.77 1003.71 1237.2Z" fill="black"/>
<path id="Vector_2" d="M1234.47 1006.89C1119.98 1121.37 1119.98 1306.48 1232.98 1421.71C1278.33 1473.75 1343 1504.97 1412.14 1508.69H1730.89C1785.29 1508.69 1812.49 1508.69 1829.39 1491.79C1846.29 1474.89 1846.29 1447.69 1846.29 1393.29V613.799C1846.29 559.398 1846.29 532.198 1829.39 515.298C1812.49 498.398 1785.29 498.398 1730.89 498.398H1490.94C1392.81 498.398 1315.5 527.391 1259 584.633C1145.26 697.631 1144.51 881.252 1257.51 994.993V994.993C1258.46 995.946 1259.76 996.494 1261.1 996.442C1264.42 996.311 1266.7 995.851 1268 995.024C1275.24 990.422 1257.59 985.99 1251.05 991.542C1246.54 995.376 1241.27 1000.46 1234.47 1006.89Z" fill="black"/>
</g>
</svg>
