<svg width="2819" height="2820" viewBox="0 0 2819 2820" fill="none" xmlns="http://www.w3.org/2000/svg">
<path d="M1246.28 1577.38C1407.85 1738.94 1407.85 2000.17 1248.38 2162.79C1184.39 2236.22 1093.11 2280.29 995.544 2285.53H545.715C468.944 2285.53 430.559 2285.53 406.709 2261.68C382.859 2237.83 382.859 2199.45 382.859 2122.68V1022.64C382.859 945.866 382.859 907.481 406.709 883.631C430.559 859.781 468.944 859.781 545.716 859.781H884.338C1022.82 859.781 1131.93 900.697 1211.66 981.479C1372.18 1140.94 1373.23 1400.08 1213.76 1560.59V1560.59C1212.42 1561.94 1210.59 1562.71 1208.69 1562.64C1204.02 1562.45 1200.79 1561.8 1198.95 1560.63C1188.74 1554.14 1213.65 1547.89 1222.87 1555.72C1229.24 1561.13 1236.68 1568.3 1246.28 1577.38Z" fill="black"/>
<path d="M1571.92 1252.36C1410.36 1413.92 1410.36 1675.15 1569.83 1837.77C1633.82 1911.21 1725.09 1955.27 1822.66 1960.51H2272.49C2349.26 1960.51 2387.65 1960.51 2411.5 1936.66C2435.35 1912.81 2435.35 1874.43 2435.35 1797.66V697.619C2435.35 620.848 2435.35 582.462 2411.5 558.612C2387.65 534.763 2349.26 534.763 2272.49 534.763H1933.87C1795.39 534.763 1686.28 575.678 1606.54 656.46C1446.03 815.926 1444.98 1075.06 1604.45 1235.57V1235.57C1605.79 1236.92 1607.62 1237.69 1609.52 1237.62C1614.19 1237.43 1617.42 1236.78 1619.25 1235.62C1629.46 1229.12 1604.56 1222.87 1595.33 1230.7C1588.97 1236.11 1581.53 1243.29 1571.92 1252.36Z" fill="black"/>
</svg>
