<svg width="105" height="35" viewBox="0 0 105 35" fill="none" xmlns="http://www.w3.org/2000/svg">
<g clip-path="url(#clip0_1627_89)">
<path d="M72.7841 0C60.8115 0 49.7872 4.12465 41.1338 10.9598H44.4529C52.5137 5.53882 62.234 2.47479 72.6656 2.47479C83.0971 2.47479 92.8174 5.65667 100.878 10.9598H104.316C95.6624 4.12465 84.6381 0 72.7841 0Z" fill="white"/>
<path d="M10.313 22.2726C10.1945 22.1548 10.0759 22.0369 9.9574 22.0369C10.9057 21.0941 11.2613 19.9157 11.2613 18.6193C11.2613 17.323 10.7872 16.1445 9.83886 15.2018C8.89054 14.259 7.58659 13.7876 5.92703 13.7876H0V30.6398H7.23097C8.29784 30.6398 9.24616 30.1684 10.1945 29.2256C11.2613 28.2828 11.7355 27.1043 11.7355 25.6902C11.7355 24.3939 11.2613 23.2154 10.313 22.2726ZM2.72643 16.3802H6.40119C6.99389 16.3802 7.58659 16.6159 7.94221 16.9695C8.41638 17.4409 8.65346 17.9123 8.65346 18.5015C8.65346 19.0907 8.41638 19.68 8.06075 20.0335C7.58659 20.5049 7.11243 20.7406 6.51973 20.7406H2.72643V16.3802ZM8.41638 27.34C7.94221 27.8114 7.46805 28.0471 6.87535 28.0471H2.72643V23.5689H6.87535C7.46805 23.5689 8.06075 23.8046 8.41638 24.1582C8.89054 24.6296 9.12762 25.1009 9.12762 25.6902C9.00908 26.3973 8.89054 26.8687 8.41638 27.34Z" fill="white"/>
<path d="M17.0702 14.6125C16.7146 14.259 16.3589 14.1411 15.8848 14.1411C15.4106 14.1411 15.055 14.259 14.8179 14.6125C14.4623 14.966 14.3438 15.3196 14.3438 15.791C14.3438 16.2624 14.4623 16.6159 14.8179 16.8516C15.1735 17.2051 15.5292 17.323 15.8848 17.323C16.3589 17.323 16.7146 17.2051 17.0702 16.8516C17.4258 16.4981 17.5443 16.1445 17.5443 15.791C17.5443 15.3196 17.3073 14.966 17.0702 14.6125ZM14.5808 18.3836V30.6397H17.1887V18.3836H14.5808Z" fill="white"/>
<path d="M22.8778 34.9999H33.3094L29.7531 29.9325C30.4644 29.579 31.1756 28.8719 31.8869 27.9291C32.5981 26.8685 32.8352 25.8079 32.8352 24.5115C32.8352 22.7438 32.2425 21.3297 30.9386 20.1512C29.7531 18.9727 28.2121 18.2656 26.434 18.2656H20.1514V20.8583H21.3368C20.507 22.0367 20.1514 23.2152 20.1514 24.5115C20.1514 26.2792 20.7441 27.6934 22.048 28.9897C23.2334 30.1682 24.7744 30.8753 26.5526 30.8753C26.7896 30.8753 27.0267 30.8753 27.1453 30.8753L28.3307 32.5251H22.8778V34.9999ZM26.6711 28.2826C25.6042 28.2826 24.7744 27.9291 24.0632 27.222C23.352 26.5149 22.9963 25.69 22.9963 24.6294C22.9963 23.5688 23.352 22.7438 24.0632 22.0367C24.7744 21.3297 25.6042 20.9761 26.6711 20.9761C27.738 20.9761 28.5677 21.3297 29.279 22.0367C29.9902 22.7438 30.3459 23.5688 30.3459 24.6294C30.3459 25.69 29.9902 26.5149 29.279 27.222C28.5677 27.9291 27.738 28.2826 26.6711 28.2826Z" fill="white"/>
<path d="M37.6962 14.6125C37.3405 14.259 36.9849 14.1411 36.5108 14.1411C36.0366 14.1411 35.681 14.259 35.4439 14.6125C35.0883 14.966 34.9697 15.3196 34.9697 15.791C34.9697 16.2624 35.0883 16.6159 35.4439 16.8516C35.7995 17.2051 36.1551 17.323 36.5108 17.323C36.9849 17.323 37.3405 17.2051 37.6962 16.8516C38.0518 16.4981 38.1703 16.1445 38.1703 15.791C38.1703 15.3196 38.0518 14.966 37.6962 14.6125ZM35.3253 18.3836V30.6397H37.9332V18.3836H35.3253Z" fill="white"/>
<path d="M51.4468 22.2726C51.3283 22.1548 51.2097 22.0369 51.0912 22.0369C52.0395 21.0941 52.3951 19.9157 52.3951 18.6193C52.3951 17.323 51.921 16.1445 50.9726 15.2018C50.0243 14.259 48.8389 13.7876 47.4164 13.7876C47.2979 13.7876 47.1794 13.7876 47.0608 13.7876H41.1338V30.6398H48.3648C49.4316 30.6398 50.3799 30.1684 51.3283 29.2256C52.2766 28.2828 52.7508 27.1043 52.7508 25.808C52.8693 24.3939 52.3951 23.2154 51.4468 22.2726ZM47.535 16.3802C48.1277 16.3802 48.7204 16.6159 49.076 16.9695C49.5502 17.4409 49.7872 17.9123 49.7872 18.5015C49.7872 19.0907 49.5502 19.68 49.1945 20.0335C48.7204 20.5049 48.2462 20.7406 47.6535 20.7406H43.8602V16.2624H47.535V16.3802ZM49.5502 27.34C49.076 27.8114 48.6018 28.0471 48.0091 28.0471H43.8602V23.5689H48.0091C48.6018 23.5689 49.1945 23.8046 49.5502 24.1582C50.0243 24.6296 50.2614 25.1009 50.2614 25.6902C50.2614 26.3973 50.0243 26.8687 49.5502 27.34Z" fill="white"/>
<path d="M60.9289 18.1482C59.9806 18.1482 59.1508 18.3839 58.321 18.7374V18.266H55.7131V30.64H58.321V23.3335C58.321 22.6264 58.5581 22.0372 59.0323 21.5658C59.5064 21.0944 60.0991 20.8587 60.8104 20.8587H61.6402V18.266H60.9289V18.1482Z" fill="white"/>
<path d="M72.9023 18.3835V19.3263C72.1911 18.6192 70.8872 18.2656 69.1091 18.2656C67.3309 18.2656 65.9085 18.8549 64.6045 20.1512C63.3006 21.4475 62.8264 22.7438 62.8264 24.5115C62.8264 26.2792 63.4191 27.6934 64.7231 28.9897C65.9085 30.1682 67.4495 30.8753 69.2276 30.8753C71.0057 30.8753 72.1911 30.5217 73.0209 29.8147V30.6396H75.6288V18.3835H72.9023ZM71.8355 27.1042C71.1242 27.8113 70.2945 28.2826 69.2276 28.2826C68.1607 28.2826 67.331 27.9291 66.6197 27.222C65.9085 26.5149 65.5528 25.5722 65.5528 24.6294C65.5528 23.5688 65.9085 22.7438 66.6197 22.0367C67.331 21.3297 68.2793 20.9761 69.2276 20.9761C70.2945 20.9761 71.1242 21.3297 71.8355 22.0367C72.5467 22.7438 72.9023 23.6866 72.9023 24.6294C72.9023 25.5722 72.5467 26.3971 71.8355 27.1042Z" fill="white"/>
<path d="M87.6005 19.6802C86.5336 18.6196 85.3482 18.1482 83.9258 18.1482C82.9774 18.1482 82.1476 18.3839 81.3179 18.7374V18.266H78.71V30.64H81.3179V23.3335C81.3179 22.6264 81.5549 22.0372 82.0291 21.5658C82.5033 21.0944 83.096 20.8587 83.8072 20.8587C84.5184 20.8587 85.1112 21.0944 85.5853 21.5658C86.0595 22.0372 86.2966 22.6264 86.2966 23.3335V30.64H88.9045V23.3335C89.1415 21.9193 88.6674 20.7408 87.6005 19.6802Z" fill="white"/>
<path d="M101.708 13.7876V19.3264C100.76 18.6193 99.5743 18.1479 98.0333 18.2658C96.2552 18.2658 94.8327 18.855 93.5287 20.1514C92.3433 21.3298 91.6321 22.8618 91.6321 24.6295C91.6321 26.3973 92.2248 27.8114 93.5287 29.1077C94.7141 30.4041 96.2552 30.9933 98.0333 30.9933C99.8114 30.9933 100.997 30.6398 101.708 29.9327V30.6398H104.316V13.7876H101.708ZM100.523 27.1043C99.8114 27.8114 98.8631 28.165 97.9147 28.165C96.8479 28.165 96.0181 27.8114 95.3068 27.1043C94.5956 26.3973 94.24 25.4545 94.24 24.5117C94.24 23.4511 94.5956 22.6261 95.3068 21.9191C96.0181 21.212 96.9664 20.8584 97.9147 20.8584C98.9816 20.8584 99.8114 21.212 100.523 21.9191C101.234 22.6261 101.589 23.5689 101.589 24.5117C101.708 25.5723 101.352 26.3973 100.523 27.1043Z" fill="white"/>
</g>
<defs>
<clipPath id="clip0_1627_89">
<rect width="104.316" height="35" fill="white"/>
</clipPath>
</defs>
</svg>
