<svg width="125" height="32" viewBox="0 0 125 32" fill="none" xmlns="http://www.w3.org/2000/svg">
<path d="M2.56116 24.5127C2.37145 24.5127 2.21622 24.4523 2.0955 24.3316C1.97477 24.2109 1.9144 24.0557 1.9144 23.8659V7.05023C1.9144 6.86052 1.97477 6.70529 2.0955 6.58457C2.21622 6.46384 2.37145 6.40347 2.56116 6.40347H10.2446C11.6761 6.40347 12.8489 6.61044 13.763 7.02436C14.6771 7.43829 15.3497 8.02468 15.7809 8.78354C16.2293 9.54241 16.4535 10.4306 16.4535 11.4482C16.4535 12.0863 16.3328 12.6468 16.0913 13.1298C15.8671 13.6127 15.5826 14.0093 15.2376 14.3198C14.9099 14.6302 14.5909 14.8631 14.2804 15.0183C14.953 15.3287 15.5394 15.8461 16.0396 16.5705C16.557 17.2776 16.8157 18.1227 16.8157 19.1058C16.8157 20.1924 16.5742 21.1409 16.0913 21.9515C15.6084 22.7621 14.8927 23.3916 13.9441 23.8401C12.9955 24.2885 11.84 24.5127 10.4775 24.5127H2.56116ZM6.02778 21.4859H9.98594C10.831 21.4859 11.4692 21.253 11.9003 20.7874C12.3315 20.3045 12.5471 19.7353 12.5471 19.0799C12.5471 18.4073 12.3229 17.8468 11.8745 17.3984C11.4433 16.9327 10.8138 16.6999 9.98594 16.6999H6.02778V21.4859ZM6.02778 13.7248H9.75311C10.5637 13.7248 11.1674 13.5264 11.564 13.1298C11.978 12.7158 12.1849 12.1898 12.1849 11.5517C12.1849 10.9135 11.978 10.4047 11.564 10.0253C11.1674 9.62864 10.5637 9.4303 9.75311 9.4303H6.02778V13.7248ZM20.365 24.5127C20.1925 24.5127 20.0459 24.4523 19.9252 24.3316C19.8045 24.2109 19.7441 24.0557 19.7441 23.8659V11.7069C19.7441 11.5172 19.8045 11.362 19.9252 11.2412C20.0459 11.1205 20.1925 11.0601 20.365 11.0601H22.952C23.1417 11.0601 23.297 11.1205 23.4177 11.2412C23.5384 11.362 23.5988 11.5172 23.5988 11.7069V23.8659C23.5988 24.0557 23.5384 24.2109 23.4177 24.3316C23.297 24.4523 23.1417 24.5127 22.952 24.5127H20.365ZM20.2874 8.99051C20.1149 8.99051 19.9683 8.93014 19.8476 8.80941C19.7269 8.68868 19.6665 8.53346 19.6665 8.34375V6.27412C19.6665 6.08441 19.7269 5.92918 19.8476 5.80846C19.9683 5.67048 20.1149 5.60149 20.2874 5.60149H23.0038C23.1935 5.60149 23.3487 5.67048 23.4694 5.80846C23.6074 5.92918 23.6764 6.08441 23.6764 6.27412V8.34375C23.6764 8.53346 23.6074 8.68868 23.4694 8.80941C23.3487 8.93014 23.1935 8.99051 23.0038 8.99051H20.2874ZM33.1556 30.2042C31.8794 30.2042 30.8187 30.0317 29.9736 29.6868C29.1285 29.3591 28.4559 28.9538 27.9557 28.4709C27.4728 28.0052 27.1279 27.5395 26.9209 27.0739C26.7139 26.6082 26.6018 26.246 26.5846 25.9873C26.5673 25.7976 26.6277 25.6424 26.7657 25.5216C26.9036 25.4009 27.0589 25.3405 27.2313 25.3405H29.9995C30.1547 25.3405 30.284 25.375 30.3875 25.444C30.5082 25.5303 30.6031 25.6682 30.6721 25.858C30.7583 26.0649 30.8791 26.2805 31.0343 26.5047C31.1895 26.7462 31.4223 26.9445 31.7328 27.0997C32.0605 27.2549 32.4916 27.3326 33.0263 27.3326C33.6299 27.3326 34.1301 27.2463 34.5268 27.0739C34.9234 26.9014 35.2166 26.6082 35.4064 26.1943C35.6133 25.7803 35.7168 25.2198 35.7168 24.5127V22.7794C35.3029 23.2278 34.7768 23.5986 34.1387 23.8918C33.5178 24.185 32.7503 24.3316 31.8363 24.3316C30.9394 24.3316 30.1461 24.1936 29.4562 23.9177C28.7836 23.6245 28.223 23.2192 27.7746 22.7018C27.3262 22.1671 26.9813 21.529 26.7398 20.7874C26.4983 20.0458 26.3604 19.2093 26.3259 18.2779C26.3086 17.8123 26.3086 17.3552 26.3259 16.9068C26.3604 16.01 26.4983 15.1908 26.7398 14.4491C26.9813 13.7075 27.3262 13.0694 27.7746 12.5347C28.223 11.9828 28.7836 11.5603 29.4562 11.2671C30.1461 10.9566 30.9394 10.8014 31.8363 10.8014C32.7848 10.8014 33.5954 10.9825 34.2681 11.3447C34.9407 11.7069 35.4926 12.1553 35.9238 12.69V11.7069C35.9238 11.5344 35.9841 11.3878 36.1049 11.2671C36.2256 11.1291 36.3722 11.0601 36.5447 11.0601H39.0799C39.2524 11.0601 39.399 11.1291 39.5197 11.2671C39.6577 11.3878 39.7267 11.5344 39.7267 11.7069L39.7526 24.1505C39.7526 25.444 39.5025 26.5392 39.0023 27.436C38.5022 28.3329 37.7606 29.0141 36.7775 29.4798C35.8117 29.9627 34.6044 30.2042 33.1556 30.2042ZM33.0263 21.3048C33.6472 21.3048 34.1473 21.1668 34.5268 20.8909C34.9234 20.5977 35.2166 20.2355 35.4064 19.8043C35.5961 19.3559 35.6996 18.8902 35.7168 18.4073C35.734 18.2176 35.7427 17.9503 35.7427 17.6053C35.7427 17.2431 35.734 16.9672 35.7168 16.7775C35.6996 16.2946 35.5961 15.8375 35.4064 15.4063C35.2166 14.9579 34.9234 14.5957 34.5268 14.3198C34.1473 14.0438 33.6472 13.9059 33.0263 13.9059C32.3709 13.9059 31.8535 14.0525 31.4741 14.3457C31.0946 14.6216 30.8187 14.9924 30.6462 15.4581C30.4737 15.9238 30.3703 16.4325 30.3358 16.9844C30.3185 17.3984 30.3185 17.8037 30.3358 18.2003C30.3703 18.7695 30.4737 19.2869 30.6462 19.7526C30.8187 20.2182 31.0946 20.5977 31.4741 20.8909C31.8535 21.1668 32.3709 21.3048 33.0263 21.3048ZM43.6331 24.5127C43.4606 24.5127 43.3141 24.4523 43.1933 24.3316C43.0726 24.2109 43.0122 24.0557 43.0122 23.8659V11.7069C43.0122 11.5172 43.0726 11.362 43.1933 11.2412C43.3141 11.1205 43.4606 11.0601 43.6331 11.0601H46.2201C46.4099 11.0601 46.5651 11.1205 46.6858 11.2412C46.8065 11.362 46.8669 11.5172 46.8669 11.7069V23.8659C46.8669 24.0557 46.8065 24.2109 46.6858 24.3316C46.5651 24.4523 46.4099 24.5127 46.2201 24.5127H43.6331ZM43.5555 8.99051C43.383 8.99051 43.2364 8.93014 43.1157 8.80941C42.995 8.68868 42.9346 8.53346 42.9346 8.34375V6.27412C42.9346 6.08441 42.995 5.92918 43.1157 5.80846C43.2364 5.67048 43.383 5.60149 43.5555 5.60149H46.2719C46.4616 5.60149 46.6168 5.67048 46.7376 5.80846C46.8755 5.92918 46.9445 6.08441 46.9445 6.27412V8.34375C46.9445 8.53346 46.8755 8.68868 46.7376 8.80941C46.6168 8.93014 46.4616 8.99051 46.2719 8.99051H43.5555ZM51.0427 24.5127C50.853 24.5127 50.6978 24.4523 50.5771 24.3316C50.4563 24.2109 50.396 24.0557 50.396 23.8659V7.05023C50.396 6.86052 50.4563 6.70529 50.5771 6.58457C50.6978 6.46384 50.853 6.40347 51.0427 6.40347H58.7262C60.1577 6.40347 61.3305 6.61044 62.2446 7.02436C63.1587 7.43829 63.8313 8.02468 64.2625 8.78354C64.7109 9.54241 64.9351 10.4306 64.9351 11.4482C64.9351 12.0863 64.8144 12.6468 64.5729 13.1298C64.3487 13.6127 64.0641 14.0093 63.7192 14.3198C63.3915 14.6302 63.0724 14.8631 62.762 15.0183C63.4346 15.3287 64.021 15.8461 64.5212 16.5705C65.0386 17.2776 65.2973 18.1227 65.2973 19.1058C65.2973 20.1924 65.0558 21.1409 64.5729 21.9515C64.09 22.7621 63.3743 23.3916 62.4257 23.8401C61.4771 24.2885 60.3216 24.5127 58.9591 24.5127H51.0427ZM54.5094 21.4859H58.4675C59.3126 21.4859 59.9507 21.253 60.3819 20.7874C60.8131 20.3045 61.0287 19.7353 61.0287 19.0799C61.0287 18.4073 60.8045 17.8468 60.3561 17.3984C59.9249 16.9327 59.2954 16.6999 58.4675 16.6999H54.5094V21.4859ZM54.5094 13.7248H58.2347C59.0453 13.7248 59.6489 13.5264 60.0456 13.1298C60.4595 12.7158 60.6665 12.1898 60.6665 11.5517C60.6665 10.9135 60.4595 10.4047 60.0456 10.0253C59.6489 9.62864 59.0453 9.4303 58.2347 9.4303H54.5094V13.7248ZM68.7202 24.5127C68.5478 24.5127 68.4012 24.4523 68.2805 24.3316C68.1597 24.2109 68.0994 24.0557 68.0994 23.8659V11.7069C68.0994 11.5344 68.1597 11.3878 68.2805 11.2671C68.4012 11.1291 68.5478 11.0601 68.7202 11.0601H71.2555C71.428 11.0601 71.5746 11.1291 71.6953 11.2671C71.8333 11.3878 71.9023 11.5344 71.9023 11.7069V12.7417C72.3335 12.207 72.8595 11.7931 73.4804 11.4999C74.1185 11.2067 74.8515 11.0601 75.6794 11.0601H76.7918C76.9643 11.0601 77.1109 11.1205 77.2316 11.2412C77.3523 11.362 77.4127 11.5172 77.4127 11.7069V13.9317C77.4127 14.1215 77.3523 14.2767 77.2316 14.3974C77.1109 14.5181 76.9643 14.5785 76.7918 14.5785H74.5152C73.7563 14.5785 73.1613 14.7941 72.7301 15.2253C72.299 15.6392 72.0834 16.2342 72.0834 17.0103V23.8659C72.0834 24.0557 72.023 24.2109 71.9023 24.3316C71.7816 24.4523 71.6263 24.5127 71.4366 24.5127H68.7202ZM83.0726 24.7714C82.1585 24.7714 81.3393 24.5989 80.6149 24.254C79.8906 23.8918 79.3128 23.4089 78.8816 22.8053C78.4505 22.2016 78.2349 21.529 78.2349 20.7874C78.2349 19.5628 78.7264 18.597 79.7095 17.8899C80.7098 17.1828 82.0206 16.6999 83.6418 16.4412L87.0308 15.9496V15.484C87.0308 14.8113 86.8756 14.2939 86.5651 13.9317C86.2547 13.5696 85.7114 13.3885 84.9353 13.3885C84.3661 13.3885 83.9091 13.5006 83.5642 13.7248C83.2192 13.949 82.9519 14.2422 82.7622 14.6044C82.6242 14.8286 82.4259 14.9407 82.1672 14.9407H79.7095C79.5198 14.9407 79.3732 14.8889 79.2697 14.7855C79.1662 14.6647 79.1231 14.5268 79.1403 14.3715C79.1403 14.0783 79.2524 13.7334 79.4766 13.3367C79.7009 12.94 80.0458 12.552 80.5115 12.1726C80.9771 11.7759 81.5721 11.4482 82.2965 11.1895C83.0209 10.9308 83.9091 10.8014 84.9611 10.8014C86.0477 10.8014 86.979 10.9308 87.7551 11.1895C88.5313 11.4482 89.1521 11.8104 89.6178 12.276C90.0835 12.7417 90.4284 13.285 90.6526 13.9059C90.8768 14.5095 90.9889 15.1649 90.9889 15.872V23.8659C90.9889 24.0557 90.9286 24.2109 90.8078 24.3316C90.6871 24.4523 90.5319 24.5127 90.3422 24.5127H87.8069C87.6344 24.5127 87.4878 24.4523 87.3671 24.3316C87.2464 24.2109 87.186 24.0557 87.186 23.8659V22.9087C86.9618 23.2364 86.66 23.5469 86.2805 23.8401C85.9011 24.116 85.4441 24.3402 84.9094 24.5127C84.392 24.6852 83.7797 24.7714 83.0726 24.7714ZM84.1074 22.0809C84.6766 22.0809 85.1854 21.9602 85.6338 21.7187C86.0822 21.4772 86.4358 21.1064 86.6945 20.6063C86.9532 20.1061 87.0825 19.4766 87.0825 18.7177V18.2779L84.6766 18.666C83.7452 18.8212 83.064 19.0541 82.6328 19.3645C82.2016 19.6749 81.9861 20.0544 81.9861 20.5028C81.9861 20.8305 82.0809 21.1151 82.2706 21.3565C82.4776 21.598 82.7449 21.7791 83.0726 21.8998C83.4003 22.0205 83.7452 22.0809 84.1074 22.0809ZM94.7421 24.5127C94.5697 24.5127 94.4231 24.4523 94.3024 24.3316C94.1816 24.2109 94.1213 24.0557 94.1213 23.8659V11.7069C94.1213 11.5172 94.1816 11.362 94.3024 11.2412C94.4231 11.1205 94.5697 11.0601 94.7421 11.0601H97.2774C97.4672 11.0601 97.6224 11.1205 97.7431 11.2412C97.8638 11.362 97.9242 11.5172 97.9242 11.7069V12.7158C98.3726 12.1639 98.9504 11.7069 99.6575 11.3447C100.365 10.9825 101.227 10.8014 102.245 10.8014C103.262 10.8014 104.15 11.0343 104.909 11.4999C105.685 11.9483 106.289 12.6123 106.72 13.4919C107.169 14.3543 107.393 15.4063 107.393 16.6481V23.8659C107.393 24.0557 107.324 24.2109 107.186 24.3316C107.065 24.4523 106.918 24.5127 106.746 24.5127H104.004C103.814 24.5127 103.659 24.4523 103.538 24.3316C103.417 24.2109 103.357 24.0557 103.357 23.8659V16.8033C103.357 15.8893 103.133 15.1821 102.684 14.682C102.253 14.1646 101.615 13.9059 100.77 13.9059C99.9593 13.9059 99.3126 14.1646 98.8297 14.682C98.3467 15.1821 98.1053 15.8893 98.1053 16.8033V23.8659C98.1053 24.0557 98.0449 24.2109 97.9242 24.3316C97.8035 24.4523 97.6569 24.5127 97.4844 24.5127H94.7421ZM115.485 24.7714C114.623 24.7714 113.855 24.6334 113.183 24.3575C112.51 24.0643 111.941 23.6504 111.475 23.1157C111.01 22.5638 110.656 21.917 110.415 21.1754C110.173 20.4166 110.027 19.5801 109.975 18.666C109.958 18.3383 109.949 18.0451 109.949 17.7864C109.949 17.5105 109.958 17.2173 109.975 16.9068C110.009 16.01 110.147 15.1908 110.389 14.4491C110.648 13.7075 111.001 13.0694 111.45 12.5347C111.915 11.9828 112.484 11.5603 113.157 11.2671C113.847 10.9566 114.623 10.8014 115.485 10.8014C116.382 10.8014 117.15 10.9566 117.788 11.2671C118.426 11.5603 118.952 11.9483 119.366 12.4313V6.79153C119.366 6.60181 119.426 6.44659 119.547 6.32586C119.668 6.20513 119.823 6.14477 120.013 6.14477H122.677C122.85 6.14477 122.996 6.20513 123.117 6.32586C123.238 6.44659 123.298 6.60181 123.298 6.79153V23.8659C123.298 24.0557 123.238 24.2109 123.117 24.3316C122.996 24.4523 122.85 24.5127 122.677 24.5127H120.194C120.021 24.5127 119.875 24.4523 119.754 24.3316C119.633 24.2109 119.573 24.0557 119.573 23.8659V22.9863C119.142 23.5038 118.598 23.9349 117.943 24.2799C117.288 24.6076 116.468 24.7714 115.485 24.7714ZM116.675 21.667C117.313 21.667 117.822 21.5204 118.202 21.2272C118.598 20.934 118.883 20.5632 119.055 20.1147C119.245 19.6663 119.349 19.1834 119.366 18.666C119.4 18.3383 119.418 18.0106 119.418 17.6829C119.418 17.3552 119.4 17.0362 119.366 16.7257C119.349 16.2428 119.245 15.7944 119.055 15.3805C118.866 14.9493 118.572 14.5957 118.176 14.3198C117.796 14.0438 117.296 13.9059 116.675 13.9059C116.02 13.9059 115.503 14.0525 115.123 14.3457C114.744 14.6216 114.468 14.9924 114.295 15.4581C114.14 15.9238 114.045 16.4325 114.011 16.9844C113.959 17.5191 113.959 18.0537 114.011 18.5884C114.045 19.1403 114.14 19.6491 114.295 20.1147C114.468 20.5804 114.744 20.9598 115.123 21.253C115.503 21.529 116.02 21.667 116.675 21.667Z" fill="white"/>
</svg>
