<svg width="46" height="46" viewBox="0 0 46 46" fill="none" xmlns="http://www.w3.org/2000/svg">
<path d="M23.2494 20.6088C26.0456 16.2008 28.4982 14 30.6087 14C33.7754 14 35.7752 17.5039 36.9421 22.2603C38.0567 26.8028 37.7337 33 33.7754 33C32.0116 33 29.5827 30.5221 27.2077 27.2177C25.6965 25.1354 24.3719 22.9239 23.2494 20.6088V20.6088ZM23.2494 20.6088C20.4532 16.2008 18.0007 14 15.8901 14C12.7234 14 10.7237 17.5039 9.55674 22.2603C8.44208 26.8028 8.76508 33 12.7234 33C14.4872 33 16.9161 30.5221 19.2911 27.2177C20.8744 25.0152 22.1933 22.8112 23.2494 20.6088Z" stroke="white" stroke-width="3.16667" stroke-linecap="round" stroke-linejoin="round"/>
<rect x="1" y="1" width="44" height="44" stroke="#FF8500" stroke-width="2"/>
</svg>
