<svg width="68" height="68" viewBox="0 0 68 68" fill="none" xmlns="http://www.w3.org/2000/svg">
<path d="M34.0361 30.1703C38.1296 23.7171 41.7201 20.4951 44.8099 20.4951C49.4459 20.4951 52.3735 25.6248 54.0818 32.5879C55.7136 39.2381 55.2408 48.3106 49.4459 48.3106C46.8637 48.3106 43.3079 44.683 39.831 39.8455C37.6186 36.7971 35.6794 33.5595 34.0361 30.1703V30.1703ZM34.0361 30.1703C29.9426 23.7171 26.352 20.4951 23.2622 20.4951C18.6263 20.4951 15.6987 25.6248 13.9903 32.5879C12.3585 39.2381 12.8314 48.3106 18.6263 48.3106C21.2085 48.3106 24.7642 44.683 28.2412 39.8455C30.5591 36.6212 32.49 33.3946 34.0361 30.1703Z" stroke="white" stroke-width="4.63592" stroke-linecap="round" stroke-linejoin="round"/>
<rect x="1.46397" y="1.46349" width="64.4149" height="64.4149" rx="13.1758" stroke="#FF8500" stroke-width="2.92795"/>
</svg>
