<svg width="50" height="50" viewBox="0 0 50 50" fill="none" xmlns="http://www.w3.org/2000/svg">
<circle cx="24.8818" cy="24.8088" r="23.4872" stroke="#FF8500" stroke-width="1.77262"/>
<path d="M25.6333 20.2126C25.6333 20.0133 25.5541 19.8221 25.4131 19.6811C25.2721 19.5401 25.0809 19.4609 24.8816 19.4609C24.6822 19.4609 24.491 19.5401 24.35 19.6811C24.209 19.8221 24.1298 20.0133 24.1298 20.2126V24.0566H20.2859C20.0865 24.0566 19.8953 24.1358 19.7543 24.2768C19.6134 24.4177 19.5342 24.6089 19.5342 24.8083C19.5342 25.0077 19.6134 25.1989 19.7543 25.3399C19.8953 25.4808 20.0865 25.56 20.2859 25.56H24.1298V29.404C24.1298 29.6034 24.209 29.7946 24.35 29.9355C24.491 30.0765 24.6822 30.1557 24.8816 30.1557C25.0809 30.1557 25.2721 30.0765 25.4131 29.9355C25.5541 29.7946 25.6333 29.6034 25.6333 29.404V25.56H29.4772C29.6766 25.56 29.8678 25.4808 30.0088 25.3399C30.1498 25.1989 30.229 25.0077 30.229 24.8083C30.229 24.6089 30.1498 24.4177 30.0088 24.2768C29.8678 24.1358 29.6766 24.0566 29.4772 24.0566H25.6333V20.2126Z" fill="#FF8500" stroke="#FF8500" stroke-width="0.354523"/>
</svg>
