<svg width="46" height="46" viewBox="0 0 46 46" fill="none" xmlns="http://www.w3.org/2000/svg">
<path d="M32.1431 10H36.0003V13.8571H32.1431V10ZM32.1431 15.7857H36.0003V19.6429H32.1431V15.7857ZM26.3574 10H30.2146V13.8571H26.3574V10ZM26.3574 15.7857H30.2146V19.6429H26.3574V15.7857Z" fill="white"/>
<path d="M34.0714 23.5001V29.2859H10.9286V13.8573H22.5V11.9287H10.9286C10.4171 11.9287 9.92654 12.1319 9.56487 12.4936C9.20319 12.8553 9 13.3458 9 13.8573V29.2859C9 29.7973 9.20319 30.2879 9.56487 30.6496C9.92654 31.0112 10.4171 31.2144 10.9286 31.2144H18.6429V35.0716H14.7857V37.0001H30.2143V35.0716H26.3571V31.2144H34.0714C34.5829 31.2144 35.0735 31.0112 35.4351 30.6496C35.7968 30.2879 36 29.7973 36 29.2859V23.5001H34.0714ZM24.4286 35.0716H20.5714V31.2144H24.4286V35.0716Z" fill="white"/>
<rect x="1" y="1" width="44" height="44" stroke="#FF8500" stroke-width="2"/>
</svg>
