<svg width="68" height="68" viewBox="0 0 68 68" fill="none" xmlns="http://www.w3.org/2000/svg">
<path d="M47.0568 14.6392H52.7036V20.2859H47.0568V14.6392ZM47.0568 23.1093H52.7036V28.7561H47.0568V23.1093ZM38.5867 14.6392H44.2334V20.2859H38.5867V14.6392ZM38.5867 23.1093H44.2334V28.7561H38.5867V23.1093Z" fill="white"/>
<path d="M49.8795 34.4032V42.8733H15.9989V20.2863H32.9392V17.4629H15.9989C15.2501 17.4629 14.532 17.7604 14.0025 18.2898C13.473 18.8193 13.1755 19.5375 13.1755 20.2863V42.8733C13.1755 43.6221 13.473 44.3403 14.0025 44.8697C14.532 45.3992 15.2501 45.6967 15.9989 45.6967H27.2924V51.3435H21.6457V54.1668H44.2327V51.3435H38.586V45.6967H49.8795C50.6283 45.6967 51.3464 45.3992 51.8759 44.8697C52.4054 44.3403 52.7029 43.6221 52.7029 42.8733V34.4032H49.8795ZM35.7626 51.3435H30.1158V45.6967H35.7626V51.3435Z" fill="white"/>
<rect x="1.46397" y="1.46397" width="64.4149" height="64.4149" rx="13.1758" stroke="#FF8500" stroke-width="2.92795"/>
</svg>
