<svg width="22" height="21" viewBox="0 0 22 21" fill="none" xmlns="http://www.w3.org/2000/svg">
<path d="M6.03516 6.95835V13.9342C6.03516 15.3063 6.58024 16.6222 7.55048 17.5925C8.52073 18.5627 9.83667 19.1078 11.2088 19.1078C12.5809 19.1078 13.8969 18.5627 14.8671 17.5925C15.8374 16.6222 16.3825 15.3063 16.3825 13.9342V5.31141C16.3825 4.39665 16.0191 3.51936 15.3722 2.87252C14.7254 2.22569 13.8481 1.8623 12.9334 1.8623C12.0186 1.8623 11.1413 2.22569 10.4945 2.87252C9.84764 3.51936 9.48426 4.39665 9.48426 5.31141V13.2288C9.48426 13.4553 9.52886 13.6795 9.61553 13.8888C9.7022 14.098 9.82923 14.2881 9.98937 14.4483C10.1495 14.6084 10.3396 14.7354 10.5489 14.8221C10.7581 14.9088 10.9823 14.9534 11.2088 14.9534V14.9534C11.6662 14.9534 12.1048 14.7717 12.4282 14.4483C12.7517 14.1248 12.9334 13.6862 12.9334 13.2288V7.03596" stroke="#FF8500" stroke-width="1.72455" stroke-linecap="round" stroke-linejoin="round"/>
</svg>
