<svg width="46" height="46" viewBox="0 0 46 46" fill="none" xmlns="http://www.w3.org/2000/svg">
<path d="M37.9451 18.6197C37.6648 17.9189 36.8238 17.6386 36.123 17.9189L32.0583 19.8812L29.1148 16.9377L26.1714 13.9943L28.1337 9.92955C28.414 9.22873 28.1337 8.38775 27.4329 8.10742C26.732 7.8271 25.8911 8.10742 25.6107 8.80824L23.5083 13.1533L14.5378 14.555C13.9771 14.6951 13.5567 15.1156 13.4165 15.6763L10.0526 31.9353C9.9124 32.3557 10.0526 32.9164 10.4731 33.1967L12.8558 35.5795C13.1362 35.8598 13.5567 36 13.837 36H14.1173L30.3763 32.6361C30.937 32.4959 31.3574 32.0754 31.4976 31.5148L32.8992 22.5443L37.2443 20.4418C37.9451 20.1615 38.2255 19.3205 37.9451 18.6197ZM28.8345 30.1131L15.0985 32.9164L20.2845 27.7303C22.387 28.7115 24.9099 27.8705 25.8911 25.768C26.8722 23.6656 26.0312 21.1426 23.9288 20.1615C22.387 19.4607 20.4247 19.741 19.1632 21.0025C17.9017 22.264 17.6214 24.2262 18.3222 25.768L13.1362 30.9541L15.9394 17.2181L24.0689 15.8164L27.1525 18.9L30.2361 21.9836L28.8345 30.1131ZM20.705 23.9459C20.705 23.5254 20.8452 23.2451 21.1255 22.9648C21.6861 22.4041 22.5271 22.4041 23.0878 22.9648C23.6484 23.5254 23.6484 24.3664 23.0878 24.9271C22.5271 25.4877 21.6861 25.4877 21.1255 24.9271C20.8452 24.6467 20.705 24.2262 20.705 23.9459Z" fill="white"/>
<rect x="1" y="1" width="44" height="44" stroke="#FF8500" stroke-width="2"/>
</svg>
