<svg width="68" height="68" viewBox="0 0 68 68" fill="none" xmlns="http://www.w3.org/2000/svg">
<path d="M55.5501 27.2579C55.1398 26.2319 53.9086 25.8215 52.8826 26.2319L46.9319 29.1047L42.6228 24.7956L38.3137 20.4864L41.1864 14.5358C41.5968 13.5098 41.1864 12.2786 40.1604 11.8682C39.1345 11.4578 37.9033 11.8682 37.4929 12.8942L34.4149 19.2553L21.2824 21.3072C20.4616 21.5124 19.846 22.128 19.6408 22.9488L14.7161 46.7515C14.5109 47.3671 14.7161 48.1879 15.3317 48.5983L18.82 52.0866C19.2304 52.497 19.846 52.7022 20.2564 52.7022H20.6668L44.4696 47.7775C45.2903 47.5723 45.9059 46.9567 46.1111 46.136L48.1631 33.0034L54.5242 29.9255C55.5501 29.5151 55.9605 28.2839 55.5501 27.2579ZM42.2124 44.084L22.1032 48.1879L29.6954 40.5957C32.7734 42.032 36.4669 40.8009 37.9033 37.7229C39.3397 34.645 38.1085 30.9514 35.0305 29.5151C32.7734 28.4891 29.9006 28.8995 28.0539 30.7462C26.2071 32.593 25.7967 35.4658 26.8227 37.7229L19.2304 45.3152L23.3343 25.206L35.2357 23.154L39.75 27.6683L44.2644 32.1826L42.2124 44.084ZM30.311 35.0554C30.311 34.4398 30.5162 34.0294 30.9266 33.619C31.7474 32.7982 32.9786 32.7982 33.7994 33.619C34.6201 34.4398 34.6201 35.671 33.7994 36.4917C32.9786 37.3125 31.7474 37.3125 30.9266 36.4917C30.5162 36.0813 30.311 35.4658 30.311 35.0554Z" fill="white"/>
<rect x="1.46397" y="1.46349" width="64.4149" height="64.4149" rx="13.1758" stroke="#FF8500" stroke-width="2.92795"/>
</svg>
