<svg width="68" height="68" viewBox="0 0 68 68" fill="none" xmlns="http://www.w3.org/2000/svg">
<path d="M33.8811 17.5669C33.2709 17.5669 32.6858 17.8093 32.2543 18.2407C31.8229 18.6721 31.5805 19.2573 31.5805 19.8674C31.5805 20.4776 31.8229 21.0627 32.2543 21.4941C32.6858 21.9256 33.2709 22.168 33.8811 22.168H52.2853C52.8955 22.168 53.4806 21.9256 53.912 21.4941C54.3435 21.0627 54.5858 20.4776 54.5858 19.8674C54.5858 19.2573 54.3435 18.6721 53.912 18.2407C53.4806 17.8093 52.8955 17.5669 52.2853 17.5669H33.8811ZM22.3784 33.6706C22.3784 33.0605 22.6208 32.4753 23.0522 32.0439C23.4836 31.6125 24.0688 31.3701 24.6789 31.3701H43.0832C43.6933 31.3701 44.2785 31.6125 44.7099 32.0439C45.1413 32.4753 45.3837 33.0605 45.3837 33.6706C45.3837 34.2808 45.1413 34.8659 44.7099 35.2973C44.2785 35.7288 43.6933 35.9712 43.0832 35.9712H24.6789C24.0688 35.9712 23.4836 35.7288 23.0522 35.2973C22.6208 34.8659 22.3784 34.2808 22.3784 33.6706ZM13.1763 47.4738C13.1763 46.8637 13.4186 46.2785 13.8501 45.8471C14.2815 45.4157 14.8667 45.1733 15.4768 45.1733H33.8811C34.4912 45.1733 35.0763 45.4157 35.5078 45.8471C35.9392 46.2785 36.1816 46.8637 36.1816 47.4738C36.1816 48.084 35.9392 48.6691 35.5078 49.1005C35.0763 49.532 34.4912 49.7743 33.8811 49.7743H15.4768C14.8667 49.7743 14.2815 49.532 13.8501 49.1005C13.4186 48.6691 13.1763 48.084 13.1763 47.4738Z" fill="white"/>
<rect x="1.46397" y="1.46349" width="64.4149" height="64.4149" rx="13.1758" stroke="#FF8500" stroke-width="2.92795"/>
</svg>
