<svg width="46" height="46" viewBox="0 0 46 46" fill="none" xmlns="http://www.w3.org/2000/svg">
<path d="M23.1429 12C22.7261 12 22.3264 12.1656 22.0317 12.4603C21.737 12.755 21.5714 13.1547 21.5714 13.5714C21.5714 13.9882 21.737 14.3879 22.0317 14.6826C22.3264 14.9773 22.7261 15.1429 23.1429 15.1429H35.7143C36.1311 15.1429 36.5308 14.9773 36.8255 14.6826C37.1202 14.3879 37.2857 13.9882 37.2857 13.5714C37.2857 13.1547 37.1202 12.755 36.8255 12.4603C36.5308 12.1656 36.1311 12 35.7143 12H23.1429ZM15.2857 23C15.2857 22.5832 15.4513 22.1835 15.746 21.8888C16.0407 21.5941 16.4404 21.4286 16.8571 21.4286H29.4286C29.8453 21.4286 30.245 21.5941 30.5397 21.8888C30.8344 22.1835 31 22.5832 31 23C31 23.4168 30.8344 23.8165 30.5397 24.1112C30.245 24.4059 29.8453 24.5714 29.4286 24.5714H16.8571C16.4404 24.5714 16.0407 24.4059 15.746 24.1112C15.4513 23.8165 15.2857 23.4168 15.2857 23ZM9 32.4286C9 32.0118 9.16556 31.6121 9.46026 31.3174C9.75496 31.0227 10.1547 30.8571 10.5714 30.8571H23.1429C23.5596 30.8571 23.9593 31.0227 24.254 31.3174C24.5487 31.6121 24.7143 32.0118 24.7143 32.4286C24.7143 32.8453 24.5487 33.245 24.254 33.5397C23.9593 33.8344 23.5596 34 23.1429 34H10.5714C10.1547 34 9.75496 33.8344 9.46026 33.5397C9.16556 33.245 9 32.8453 9 32.4286Z" fill="white"/>
<rect x="1" y="1" width="44" height="44" stroke="#FF8500" stroke-width="2"/>
</svg>
