<svg width="37" height="37" viewBox="0 0 37 37" fill="none" xmlns="http://www.w3.org/2000/svg">
<circle cx="18.2224" cy="18.2231" r="9.11157" fill="white"/>
<path d="M18.2231 0C8.16397 0 0 8.16397 0 18.2231C0 28.2823 8.16397 36.4463 18.2231 36.4463C28.2823 36.4463 36.4463 28.2823 36.4463 18.2231C36.4463 8.16397 28.2823 0 18.2231 0ZM13.6674 23.0887V13.3576C13.6674 11.9179 15.271 11.0432 16.4737 11.8268L24.0363 16.6924C24.2921 16.8576 24.5024 17.0843 24.648 17.3517C24.7936 17.6191 24.8699 17.9187 24.8699 18.2231C24.8699 18.5276 24.7936 18.8272 24.648 19.0946C24.5024 19.362 24.2921 19.5887 24.0363 19.7539L16.4737 24.6195C15.271 25.4031 13.6674 24.5284 13.6674 23.0887Z" fill="#FF8500"/>
</svg>
