<svg width="17141" height="17141" viewBox="0 0 17141 17141" fill="none" xmlns="http://www.w3.org/2000/svg">
<circle cx="8570.5" cy="8570.5" r="8570.5" fill="black"/>
<path d="M13950.7 5190.33H12860.6L12814.1 5159.33C10241.1 3444 6882.75 3444 4309.75 5159.33L4263.25 5190.33H3167.91L3570.91 4870C6490.08 2555.33 10623.4 2555.33 13542.6 4870L13950.7 5190.33Z" fill="white"/>
<path d="M7414.96 9628.5C8210.63 10424.2 8210.63 11710.7 7425.3 12511.5C7110.13 12873.2 6660.63 13090.2 6180.13 13116H3162.8V6094.5H5632.46C6314.46 6094.5 6851.8 6296 7244.46 6693.83C8034.96 7479.16 8040.13 8755.33 7254.8 9545.83C7249.63 9551 7249.63 9551 7244.46 9556.16C7156.63 9556.16 7151.46 9530.33 7218.63 9468.33C7270.3 9489 7321.96 9540.66 7414.96 9628.5ZM4278.8 7189.83V9044.66H5828.8C6071.63 9044.66 6309.3 8946.5 6479.8 8770.83C6655.46 8600.33 6753.63 8362.66 6748.46 8114.66C6748.46 7866.66 6650.3 7634.16 6474.63 7458.5C6304.13 7282.83 6066.46 7184.66 5818.46 7189.83H4278.8V7189.83ZM5988.96 12010.3C6236.96 12010.3 6469.46 11912.2 6645.13 11736.5C7006.8 11369.7 7001.63 10780.7 6634.8 10419C6459.13 10248.5 6226.63 10150.3 5983.8 10150.3H4283.96V12010.3H5988.96Z" fill="white"/>
<path d="M12891.7 6094.5V8321.33C12447.3 7990.66 11904.8 7825.33 11352 7861.5C9900.16 7902.83 8753.16 9106.66 8794.49 10558.5C8830.66 11953.5 9956.99 13079.8 11352 13116C12080.5 13116 12592 12961 12891.7 12656.2V13048.8H13976.7V6094.5H12891.7ZM12442.2 11581.5C11837.7 12186 10856 12191.2 10251.5 11586.7C9646.99 10982.2 9641.82 10000.5 10246.3 9396C10850.8 8791.5 11832.5 8786.33 12437 9390.83C12731.5 9680.16 12891.7 10078 12891.7 10491.3C12902 10899.5 12736.7 11297.3 12442.2 11581.5Z" fill="white"/>
</svg>
